<?xml version="1.0" encoding="utf-8"?>
<!-- Generator: Adobe Illustrator 27.5.0, SVG Export Plug-In . SVG Version: 6.00 Build 0)  -->
<svg version="1.1" id="Layer_1" xmlns="http://www.w3.org/2000/svg" xmlns:xlink="http://www.w3.org/1999/xlink" x="0px" y="0px"
	 viewBox="0 0 277.11 364.498" style="enable-background:new 0 0 277.11 364.498;" xml:space="preserve">
<g>
	<g>
		<path style="fill:#2B3190;stroke:#00123E;stroke-width:0.25;stroke-miterlimit:10;" d="M226.167,241.34
			c-9.758-2.324-106.856-16.264-106.856-16.264s-81.301,59.934-87.805,64.576c-6.504,4.646-13.009,6.971-6.039,8.367
			c0,0,5.832,1.262,14.813,3.217c-10.381,9.979-17.982,17.262-19.459,18.615c-5.576,5.111-2.323,6.504,3.251,6.969
			c5.577,0.465,86.412,21.836,98.955,23.228c12.546,1.397,21.37,2.789,26.017-1.857c4.646-4.647,71.08-64.576,78.98-71.082
			c7.896-6.504,8.362-6.037,11.612-16.258C242.891,250.629,235.921,243.662,226.167,241.34z"/>
		<path style="opacity:0.5;fill:#2B3190;" d="M234.643,245.107c0.395,3.6-2.046,7.184-4.981,9.934
			c-5.459,5.117-11.914,9.111-17.645,13.924c-10.621,8.918-21.337,17.723-32.056,26.516c-8.147,6.689-15.204,14.699-23.787,20.863
			c-4.04,2.9-8.492,6.035-13.684,6.008c-5.449-0.029-10.869-1.252-16.201-2.273c-12.949-2.477-25.873-5.094-38.889-7.197
			c-13.768-2.225-26.987-6.002-40.598-8.859c-2.471-0.52-4.908-1.256-7.342-2c-9.955,9.57-17.202,16.514-18.639,17.83
			c-5.576,5.111-2.323,6.504,3.251,6.969c5.577,0.465,86.412,21.836,98.955,23.228c12.546,1.397,21.37,2.789,26.017-1.857
			c4.646-4.647,71.08-64.576,78.98-71.082c7.896-6.504,8.362-6.037,11.612-16.258C241.815,254.002,239.405,248.619,234.643,245.107z
			"/>
		<g>
			<path style="fill:#2B3190;" d="M23.764,318.924c-3.1,3.096-5.885,3.715,1.239,5.574c7.123,1.858,43.671,10.219,64.111,14.246
				c20.442,4.027,51.414,13.008,56.059,8.98c4.646-4.023,7.124-13.008,1.55-21.678c-5.576-8.674-46.148-15.797-67.519-20.443
				c-16.704-3.629-44.187-8.773-55.397-10.85c-1.938,1.5-2.079,2.516,1.66,3.266c0,0,5.832,1.262,14.813,3.217
				c-2.183,2.098-4.238,4.072-6.143,5.904l0.466,0.014C34.604,307.154,26.86,315.828,23.764,318.924z"/>
		</g>
		<path style="fill:#FEFCED;stroke:#A39D8D;stroke-miterlimit:10;" d="M26.164,298.48c0,0,7.666,6.35,6.581,12.234
			c-1.084,5.885-6.504,9.912-6.504,9.912s-2.169,0.932,4.181,2.17c6.347,1.238,104.221,22.609,107.937,22.764
			c3.719,0.152,8.52,0.465,8.827-10.531c0.312-10.994-12.773-12.697-22.997-15.641C113.969,316.447,26.164,298.48,26.164,298.48z"/>
		<path style="fill:#EAE3D3;" d="M124.188,319.389c-10.22-2.941-98.024-20.908-98.024-20.908s7.666,6.35,6.581,12.234
			c-1.084,5.885-6.504,9.912-6.504,9.912s-2.169,0.932,4.181,2.17c6.347,1.238,104.221,22.609,107.937,22.764
			c3.719,0.152,8.52,0.465,8.827-10.531C147.497,324.035,134.412,322.332,124.188,319.389z M134.023,339.982
			c-9.929-1.248-30.349-6.035-39.956-8.67c0.355,1.209,10.947,5.299,9.293,4.955c-10.862-2.256-61.088-13.035-70.307-16.105
			c-2.3-0.766,1.59-1.355,3.909-0.586c5.737,1.912,42.503,10.813,48.435,11.426c-5.764-1.66-42.349-11.928-48.317-12.355
			c-2.417-0.174-2.434-3.957,0-3.783c7.546,0.545,14.579,3.24,21.873,5.025c7.297,1.783,14.726,3.045,21.989,4.953
			c15.643,4.111,36.357,10.02,52.462,12.045C135.788,337.188,136.436,340.287,134.023,339.982z M134.331,335.059
			c-7.501-0.465-15.458-2.738-22.853-4.228c-8.229-1.656-16.433-3.434-24.611-5.332c-16.827-3.902-33.562-8.191-50.289-12.496
			c-2.36-0.605-1.355-4.254,1.005-3.645c16.727,4.305,33.454,8.623,50.289,12.496c8.181,1.885,16.379,3.695,24.613,5.332
			c7.057,1.402,14.689,3.649,21.846,4.094C136.752,331.43,136.769,335.213,134.331,335.059z M135.034,329.318
			c-16.182-4.73-33.133-7.57-49.633-11.162c-8.305-1.807-16.594-3.664-24.949-5.23c-7.906-1.484-15.596-3.014-23.061-6.084
			c-2.223-0.912-4.834-4.666-2.481-4.025c10.223,2.787,18.643,4.986,26.546,6.463c8.358,1.561,16.644,3.424,24.948,5.232
			c15.968,3.475,32.351,6.26,48.057,10.723c0.582-0.186,1.245-0.107,1.828,0.404c0.193,0.17,0.389,0.346,0.586,0.52
			C138.315,327.43,136.799,329.834,135.034,329.318z"/>
		<path style="fill:#EAE3D3;" d="M124.188,319.389c-10.22-2.941-98.024-20.908-98.024-20.908s7.666,6.35,6.581,12.234
			c-0.188,1.006-0.506,1.953-0.893,2.84c2.413-2.09,3.676-5.748,1.569-8.393c-0.986-1.238-0.444-3.211,1.336-3.227
			c6.233-0.064,12.346,1.75,18.354,3.217c6.937,1.689,13.745,3.855,20.711,5.443c14.28,3.254,28.759,5.514,43.075,8.596
			c3.368,0.723,21.421,3.047,24.48,8.82c4.194,4.918,4.462,14.887-3.619,15.617c-3.213,0.291-6.403,0.258-9.573,0.006
			c5.737,1.172,9.5,1.898,10.173,1.926c3.719,0.152,8.52,0.465,8.827-10.531C147.497,324.035,134.412,322.332,124.188,319.389z"/>
		<path style="fill:#2B3190;" d="M28.718,293.219l91.986-66.592l106.855,16.416c0,0-99.113-13.008-104.067-12.701
			C118.538,230.654,28.718,293.219,28.718,293.219z"/>
		<path style="fill:#2B3190;" d="M228.798,247.689c-8.506,6.236-76.5,63.799-82.077,68.445c-5.573,4.647-6.192,9.604,3.1,2.479
			c9.289-7.125,74.95-63.182,79.288-67.209C233.444,247.377,233.444,244.281,228.798,247.689z"/>
	</g>
	<g>
		<g>
			<path style="fill:#A31824;" d="M248.98,212.795c-9.758-2.322-106.856-16.262-106.856-16.262s-81.3,59.934-87.805,64.576
				c-6.504,4.646-13.008,6.969-6.038,8.365c0,0,5.831,1.262,14.813,3.217c-10.381,9.978-17.983,17.264-19.459,18.613
				c-5.577,5.111-2.323,6.504,3.25,6.971c5.577,0.465,86.412,21.836,98.955,23.229c12.547,1.395,21.37,2.787,26.017-1.859
				c4.646-4.647,71.081-64.574,78.98-71.078c7.898-6.504,8.362-6.039,11.613-16.26C265.704,222.084,258.734,215.117,248.98,212.795z
				"/>
			<path style="fill:none;stroke:#3E0014;stroke-width:0.25;stroke-miterlimit:10;" d="M249.957,211.697
				c-9.758-2.324-106.854-16.262-106.854-16.262s-81.301,59.934-87.805,64.576c-6.505,4.647-13.009,6.969-6.039,8.365
				c0,0,5.831,1.262,14.812,3.217c-10.381,9.978-17.982,17.264-19.459,18.615c-5.577,5.111-2.323,6.504,3.25,6.969
				c5.577,0.467,86.412,21.836,98.955,23.229c12.547,1.396,21.371,2.789,26.017-1.858c4.646-4.646,71.081-64.576,78.981-71.08
				c7.897-6.504,8.361-6.039,11.612-16.26C266.681,220.986,259.712,214.02,249.957,211.697z"/>
		</g>
		<g style="opacity:0.5;">
			<path style="fill:#A31824;" d="M258.433,215.467c0.396,3.598-2.045,7.184-4.98,9.932c-5.46,5.117-11.914,9.111-17.645,13.926
				c-10.622,8.918-21.337,17.721-32.056,26.516c-8.147,6.688-15.204,14.697-23.787,20.861c-4.041,2.902-8.493,6.035-13.685,6.008
				c-5.45-0.029-10.869-1.252-16.202-2.272c-12.948-2.478-25.873-5.096-38.888-7.197c-13.769-2.227-26.987-6.002-40.599-8.861
				c-2.47-0.52-4.907-1.256-7.341-1.998c-9.955,9.57-17.203,16.512-18.639,17.828c-5.577,5.111-2.323,6.504,3.25,6.969
				c5.577,0.467,86.412,21.836,98.955,23.229c12.547,1.396,21.371,2.789,26.017-1.858c4.646-4.646,71.081-64.576,78.981-71.08
				c7.897-6.504,8.361-6.039,11.612-16.26C265.607,224.361,263.196,218.979,258.433,215.467z"/>
		</g>
		<g>
			<path style="fill:#A31824;" d="M47.555,289.281c-3.1,3.098-5.885,3.717,1.238,5.574c7.124,1.857,43.672,10.219,64.111,14.246
				c20.443,4.027,51.414,13.01,56.061,8.982c4.645-4.024,7.123-13.01,1.55-21.68c-5.577-8.672-46.148-15.797-67.52-20.441
				c-16.703-3.629-44.187-8.775-55.397-10.85c-1.938,1.5-2.079,2.514,1.66,3.264c0,0,5.831,1.262,14.812,3.217
				c-2.183,2.1-4.238,4.074-6.143,5.904l0.465,0.014C58.394,277.512,50.651,286.185,47.555,289.281z"/>
		</g>
		<path style="fill:#FEFCED;stroke:#A39D8D;stroke-miterlimit:10;" d="M49.955,268.838c0,0,7.665,6.352,6.581,12.236
			c-1.085,5.885-6.504,9.912-6.504,9.912s-2.17,0.93,4.181,2.168c6.347,1.238,104.221,22.609,107.937,22.764
			c3.719,0.154,8.52,0.465,8.827-10.531c0.312-10.994-12.774-12.697-22.997-15.641C137.759,286.805,49.955,268.838,49.955,268.838z"
			/>
		<path style="fill:#EAE3D3;" d="M147.98,289.746c-10.221-2.941-98.024-20.908-98.024-20.908s7.665,6.352,6.581,12.236
			c-1.085,5.885-6.504,9.912-6.504,9.912s-2.17,0.93,4.181,2.168c6.347,1.238,104.221,22.609,107.937,22.764
			c3.719,0.154,8.52,0.465,8.827-10.531C171.288,294.393,158.202,292.69,147.98,289.746z M157.814,310.34
			c-9.929-1.248-30.349-6.035-39.956-8.67c0.355,1.209,10.946,5.301,9.293,4.955c-10.863-2.256-61.089-13.035-70.308-16.105
			c-2.3-0.766,1.59-1.355,3.91-0.586c5.737,1.912,42.503,10.813,48.435,11.426c-5.765-1.66-42.349-11.928-48.317-12.355
			c-2.417-0.174-2.434-3.957,0-3.783c7.545,0.547,14.578,3.24,21.872,5.025c7.298,1.783,14.726,3.045,21.99,4.953
			c15.643,4.111,36.357,10.02,52.461,12.045C159.578,307.545,160.228,310.645,157.814,310.34z M158.122,305.416
			c-7.502-0.465-15.459-2.738-22.854-4.226c-8.228-1.658-16.433-3.436-24.61-5.334c-16.828-3.902-33.562-8.191-50.289-12.496
			c-2.36-0.605-1.357-4.254,1.004-3.645c16.728,4.305,33.455,8.623,50.289,12.496c8.182,1.885,16.38,3.695,24.614,5.332
			c7.057,1.402,14.689,3.648,21.846,4.094C160.542,301.787,160.56,305.57,158.122,305.416z M158.825,299.676
			c-16.182-4.73-33.134-7.568-49.633-11.16c-8.306-1.809-16.594-3.666-24.949-5.232c-7.906-1.482-15.596-3.014-23.061-6.082
			c-2.223-0.914-4.834-4.666-2.48-4.027c10.223,2.789,18.642,4.988,26.545,6.463c8.359,1.561,16.645,3.426,24.949,5.232
			c15.967,3.475,32.35,6.26,48.057,10.723c0.582-0.184,1.245-0.107,1.827,0.404c0.194,0.172,0.389,0.346,0.586,0.52
			C162.105,297.787,160.589,300.191,158.825,299.676z"/>
		<path style="fill:#EAE3D3;" d="M147.98,289.746c-10.221-2.941-98.024-20.908-98.024-20.908s7.665,6.352,6.581,12.236
			c-0.188,1.004-0.506,1.951-0.894,2.838c2.414-2.088,3.676-5.748,1.57-8.393c-0.987-1.238-0.445-3.209,1.336-3.227
			c6.232-0.063,12.346,1.75,18.354,3.217c6.936,1.691,13.744,3.857,20.711,5.443c14.28,3.254,28.758,5.514,43.075,8.596
			c3.367,0.725,21.42,3.047,24.48,8.822c4.194,4.916,4.462,14.885-3.619,15.615c-3.213,0.291-6.403,0.258-9.574,0.006
			c5.738,1.172,9.501,1.898,10.174,1.926c3.719,0.154,8.52,0.465,8.827-10.531C171.288,294.393,158.202,292.69,147.98,289.746z"/>
		<g>
			<path style="fill:#A31824;" d="M52.509,263.576l91.986-66.592L251.35,213.4c0,0-99.112-13.008-104.066-12.699
				C142.329,201.012,52.509,263.576,52.509,263.576z"/>
		</g>
		<g>
			<path style="fill:#A31824;" d="M252.588,218.047c-8.506,6.236-76.5,63.801-82.077,68.447c-5.573,4.645-6.192,9.604,3.1,2.477
				c9.29-7.123,74.951-63.182,79.289-67.207C257.234,217.736,257.234,214.639,252.588,218.047z"/>
		</g>
	</g>
	<g>
		<g>
			<path style="fill:#78902B;" d="M228.768,175.533c-9.758-2.322-106.855-16.262-106.855-16.262s-81.3,59.934-87.805,64.576
				c-6.504,4.646-13.008,6.971-6.038,8.365c0,0,5.831,1.264,14.813,3.217c-10.381,9.98-17.983,17.264-19.459,18.617
				c-5.577,5.111-2.323,6.504,3.25,6.969c5.577,0.465,86.412,21.836,98.955,23.229c12.547,1.395,21.371,2.787,26.017-1.857
				c4.646-4.646,71.081-64.578,78.982-71.082c7.896-6.504,8.361-6.039,11.611-16.258
				C245.491,184.824,238.523,177.857,228.768,175.533z"/>
			<path style="fill:none;stroke:#3D3E00;stroke-width:0.25;stroke-miterlimit:10;" d="M228.768,175.533
				c-9.758-2.322-106.855-16.262-106.855-16.262s-81.3,59.934-87.805,64.576c-6.504,4.646-13.008,6.971-6.038,8.365
				c0,0,5.831,1.264,14.813,3.217c-10.381,9.98-17.983,17.264-19.459,18.617c-5.577,5.111-2.323,6.504,3.25,6.969
				c5.577,0.465,86.412,21.836,98.955,23.229c12.547,1.395,21.371,2.787,26.017-1.857c4.646-4.646,71.081-64.578,78.982-71.082
				c7.896-6.504,8.361-6.039,11.611-16.258C245.491,184.824,238.523,177.857,228.768,175.533z"/>
		</g>
		<g style="opacity:0.5;">
			<path style="fill:#78902B;" d="M237.243,179.303c0.396,3.6-2.045,7.184-4.98,9.932c-5.46,5.119-11.914,9.113-17.645,13.926
				c-10.622,8.918-21.338,17.723-32.056,26.516c-8.148,6.689-15.204,14.699-23.788,20.861c-4.04,2.902-8.492,6.037-13.684,6.01
				c-5.45-0.031-10.87-1.252-16.202-2.273c-12.948-2.477-25.873-5.094-38.888-7.197c-13.769-2.227-26.988-6.002-40.599-8.861
				c-2.471-0.518-4.907-1.254-7.341-1.998c-9.955,9.57-17.203,16.514-18.639,17.83c-5.577,5.111-2.323,6.504,3.25,6.969
				c5.577,0.465,86.412,21.836,98.955,23.229c12.547,1.395,21.371,2.787,26.017-1.857c4.646-4.646,71.081-64.578,78.982-71.082
				c7.896-6.504,8.361-6.039,11.611-16.258C244.417,188.197,242.007,182.814,237.243,179.303z"/>
		</g>
		<g>
			<path style="fill:#78902B;" d="M26.365,253.119c-3.101,3.096-5.885,3.715,1.238,5.572c7.124,1.859,43.671,10.221,64.111,14.248
				c20.442,4.027,51.414,13.008,56.061,8.98c4.645-4.023,7.123-13.008,1.55-21.678c-5.577-8.674-46.148-15.797-67.519-20.443
				c-16.703-3.629-44.187-8.773-55.398-10.85c-1.938,1.5-2.078,2.516,1.661,3.264c0,0,5.831,1.264,14.813,3.217
				c-2.183,2.1-4.238,4.074-6.143,5.906l0.465,0.014C37.204,241.35,29.462,250.021,26.365,253.119z"/>
		</g>
		<path style="fill:#FEFCED;stroke:#A39D8D;stroke-miterlimit:10;" d="M28.765,232.676c0,0,7.666,6.35,6.582,12.234
			c-1.085,5.885-6.505,9.912-6.505,9.912s-2.169,0.932,4.182,2.17c6.347,1.238,104.221,22.609,107.937,22.762
			c3.719,0.154,8.52,0.467,8.827-10.531c0.312-10.992-12.774-12.695-22.997-15.639C116.569,250.643,28.765,232.676,28.765,232.676z"
			/>
		<path style="fill:#EAE3D3;" d="M126.79,253.584c-10.221-2.941-98.025-20.908-98.025-20.908s7.666,6.35,6.582,12.234
			c-1.085,5.885-6.505,9.912-6.505,9.912s-2.169,0.932,4.182,2.17c6.347,1.238,104.221,22.609,107.937,22.762
			c3.719,0.154,8.52,0.467,8.827-10.531C150.099,258.23,137.013,256.527,126.79,253.584z M136.624,274.178
			c-9.928-1.248-30.348-6.035-39.955-8.67c0.354,1.209,10.946,5.299,9.293,4.955c-10.863-2.258-61.089-13.035-70.308-16.105
			c-2.3-0.768,1.59-1.355,3.91-0.586c5.737,1.912,42.503,10.813,48.435,11.426c-5.765-1.66-42.35-11.928-48.317-12.355
			c-2.417-0.176-2.434-3.957,0-3.783c7.545,0.545,14.578,3.24,21.872,5.023c7.298,1.785,14.726,3.047,21.99,4.955
			c15.643,4.111,36.356,10.02,52.461,12.045C138.389,271.383,139.038,274.482,136.624,274.178z M136.933,269.254
			c-7.502-0.465-15.459-2.738-22.854-4.229c-8.229-1.656-16.433-3.434-24.61-5.332c-16.828-3.902-33.563-8.191-50.29-12.496
			c-2.359-0.605-1.355-4.254,1.005-3.646c16.727,4.307,33.454,8.623,50.289,12.496c8.182,1.885,16.38,3.697,24.614,5.334
			c7.057,1.402,14.689,3.648,21.846,4.094C139.353,265.625,139.369,269.408,136.933,269.254z M137.636,263.514
			c-16.182-4.73-33.134-7.57-49.634-11.162c-8.305-1.807-16.593-3.664-24.948-5.232c-7.907-1.482-15.596-3.012-23.061-6.082
			c-2.224-0.914-4.834-4.666-2.48-4.027c10.223,2.789,18.642,4.988,26.545,6.465c8.359,1.561,16.644,3.424,24.949,5.232
			c15.967,3.475,32.35,6.26,48.057,10.723c0.582-0.186,1.245-0.107,1.827,0.404c0.194,0.17,0.389,0.344,0.586,0.519
			C140.916,261.625,139.399,264.027,137.636,263.514z"/>
		<path style="fill:#EAE3D3;" d="M126.79,253.584c-10.221-2.941-98.025-20.908-98.025-20.908s7.666,6.35,6.582,12.234
			c-0.188,1.004-0.506,1.953-0.894,2.84c2.414-2.09,3.676-5.748,1.57-8.393c-0.987-1.238-0.445-3.211,1.336-3.227
			c6.232-0.064,12.346,1.75,18.354,3.217c6.937,1.689,13.745,3.855,20.711,5.443c14.281,3.254,28.759,5.512,43.076,8.596
			c3.367,0.723,21.42,3.047,24.481,8.82c4.193,4.918,4.462,14.887-3.619,15.617c-3.214,0.291-6.404,0.256-9.574,0.006
			c5.738,1.172,9.5,1.898,10.174,1.924c3.719,0.154,8.52,0.467,8.827-10.531C150.099,258.23,137.013,256.527,126.79,253.584z"/>
		<g>
			<path style="fill:#78902B;" d="M31.319,227.414l91.985-66.592l106.855,16.416c0,0-99.112-13.008-104.067-12.701
				C121.14,164.85,31.319,227.414,31.319,227.414z"/>
		</g>
		<g>
			<path style="fill:#78902B;" d="M231.398,181.885c-8.506,6.236-76.5,63.799-82.077,68.445c-5.573,4.646-6.192,9.604,3.1,2.477
				c9.29-7.123,74.951-63.18,79.289-67.207C236.045,181.572,236.045,178.477,231.398,181.885z"/>
		</g>
	</g>
	<g>
		<g>
			<path style="fill:#2B7390;" d="M221.112,140.264c-9.758-2.324-106.856-16.262-106.856-16.262s-81.301,59.934-87.805,64.576
				c-6.504,4.646-13.009,6.969-6.039,8.365c0,0,5.831,1.262,14.813,3.217c-10.381,9.979-17.982,17.262-19.459,18.615
				c-5.576,5.111-2.323,6.504,3.251,6.969c5.577,0.467,86.412,21.836,98.955,23.229c12.546,1.396,21.37,2.787,26.017-1.857
				c4.646-4.646,71.08-64.576,78.98-71.08c7.896-6.504,8.362-6.039,11.612-16.26C237.836,149.553,230.866,142.586,221.112,140.264z"
				/>
			<path style="fill:none;stroke:#003A3E;stroke-width:0.25;stroke-miterlimit:10;" d="M221.112,140.264
				c-9.758-2.324-106.856-16.262-106.856-16.262s-81.301,59.934-87.805,64.576c-6.504,4.646-13.009,6.969-6.039,8.365
				c0,0,5.831,1.262,14.813,3.217c-10.381,9.979-17.982,17.262-19.459,18.615c-5.576,5.111-2.323,6.504,3.251,6.969
				c5.577,0.467,86.412,21.836,98.955,23.229c12.546,1.396,21.37,2.787,26.017-1.857c4.646-4.646,71.08-64.576,78.98-71.08
				c7.896-6.504,8.362-6.039,11.612-16.26C237.836,149.553,230.866,142.586,221.112,140.264z"/>
		</g>
		<g style="opacity:0.5;">
			<path style="fill:#2B7390;" d="M229.588,144.033c0.395,3.598-2.046,7.184-4.981,9.932c-5.46,5.117-11.914,9.111-17.645,13.926
				c-10.621,8.918-21.337,17.721-32.056,26.516c-8.147,6.688-15.204,14.697-23.787,20.861c-4.04,2.902-8.492,6.035-13.685,6.008
				c-5.449-0.029-10.869-1.252-16.201-2.273c-12.949-2.477-25.873-5.094-38.889-7.195c-13.768-2.227-26.987-6.002-40.598-8.861
				c-2.471-0.52-4.908-1.256-7.342-1.998c-9.955,9.57-17.202,16.512-18.639,17.828c-5.576,5.111-2.323,6.504,3.251,6.969
				c5.577,0.467,86.412,21.836,98.955,23.229c12.546,1.396,21.37,2.787,26.017-1.857c4.646-4.646,71.08-64.576,78.98-71.08
				c7.896-6.504,8.362-6.039,11.612-16.26C236.761,152.928,234.351,147.545,229.588,144.033z"/>
		</g>
		<g>
			<path style="fill:#2B7390;" d="M18.709,217.848c-3.1,3.098-5.885,3.717,1.239,5.574c7.123,1.857,43.671,10.219,64.11,14.246
				c20.443,4.027,51.415,13.01,56.061,8.982c4.646-4.023,7.124-13.01,1.55-21.68c-5.576-8.672-46.149-15.797-67.519-20.441
				c-16.704-3.629-44.187-8.775-55.397-10.85c-1.938,1.5-2.079,2.514,1.66,3.264c0,0,5.831,1.262,14.813,3.217
				c-2.183,2.098-4.238,4.074-6.143,5.904l0.466,0.014C29.549,206.078,21.806,214.752,18.709,217.848z"/>
		</g>
		<path style="fill:#FEFCED;stroke:#A39D8D;stroke-miterlimit:10;" d="M21.109,197.404c0,0,7.666,6.352,6.581,12.236
			c-1.084,5.885-6.504,9.912-6.504,9.912s-2.169,0.93,4.181,2.168c6.347,1.238,104.221,22.609,107.936,22.764
			c3.719,0.154,8.52,0.465,8.827-10.531c0.311-10.994-12.773-12.697-22.997-15.641C108.914,215.371,21.109,197.404,21.109,197.404z"
			/>
		<path style="fill:#EAE3D3;" d="M119.134,218.313c-10.22-2.941-98.024-20.908-98.024-20.908s7.666,6.352,6.581,12.236
			c-1.084,5.885-6.504,9.912-6.504,9.912s-2.169,0.93,4.181,2.168c6.347,1.238,104.221,22.609,107.936,22.764
			c3.719,0.154,8.52,0.465,8.827-10.531C142.442,222.959,129.357,221.256,119.134,218.313z M128.969,238.906
			c-9.929-1.248-30.349-6.035-39.956-8.67c0.355,1.209,10.947,5.299,9.293,4.955c-10.862-2.256-61.088-13.035-70.307-16.105
			c-2.301-0.766,1.59-1.355,3.909-0.586c5.737,1.912,42.503,10.813,48.435,11.426c-5.764-1.66-42.349-11.928-48.317-12.355
			c-2.417-0.174-2.434-3.957,0-3.783c7.546,0.547,14.579,3.24,21.873,5.025c7.297,1.783,14.726,3.045,21.989,4.953
			c15.643,4.111,36.357,10.02,52.462,12.045C130.733,236.111,131.382,239.211,128.969,238.906z M129.276,233.982
			c-7.501-0.465-15.458-2.738-22.853-4.227c-8.229-1.658-16.433-3.436-24.611-5.334c-16.827-3.902-33.562-8.191-50.289-12.496
			c-2.36-0.605-1.356-4.254,1.005-3.645c16.727,4.305,33.454,8.623,50.289,12.496c8.181,1.885,16.379,3.695,24.613,5.332
			c7.057,1.402,14.689,3.648,21.846,4.094C131.697,230.354,131.714,234.137,129.276,233.982z M129.98,228.242
			c-16.182-4.73-33.133-7.568-49.633-11.16c-8.305-1.809-16.594-3.666-24.949-5.232c-7.906-1.482-15.596-3.014-23.061-6.082
			c-2.223-0.914-4.834-4.668-2.48-4.027c10.223,2.789,18.642,4.988,26.546,6.463c8.358,1.561,16.643,3.426,24.948,5.232
			c15.968,3.475,32.351,6.26,48.057,10.723c0.582-0.184,1.245-0.107,1.828,0.404c0.193,0.172,0.389,0.346,0.586,0.52
			C133.261,226.354,131.744,228.758,129.98,228.242z"/>
		<path style="fill:#EAE3D3;" d="M119.134,218.313c-10.22-2.941-98.024-20.908-98.024-20.908s7.666,6.352,6.581,12.236
			c-0.188,1.004-0.506,1.951-0.893,2.838c2.413-2.088,3.676-5.748,1.569-8.393c-0.986-1.238-0.444-3.209,1.336-3.227
			c6.233-0.064,12.346,1.75,18.355,3.217c6.936,1.691,13.745,3.857,20.711,5.443c14.28,3.254,28.759,5.514,43.075,8.596
			c3.368,0.723,21.421,3.047,24.481,8.82c4.194,4.918,4.462,14.887-3.619,15.617c-3.213,0.291-6.403,0.258-9.573,0.006
			c5.737,1.172,9.5,1.898,10.173,1.926c3.719,0.154,8.52,0.465,8.827-10.531C142.442,222.959,129.357,221.256,119.134,218.313z"/>
		<g>
			<path style="fill:#2B7390;" d="M23.663,192.143l91.986-66.592l106.855,16.416c0,0-99.113-13.008-104.067-12.699
				C113.483,129.578,23.663,192.143,23.663,192.143z"/>
		</g>
		<g>
			<path style="fill:#2B7390;" d="M223.743,146.613c-8.506,6.236-76.5,63.801-82.077,68.445c-5.573,4.646-6.192,9.605,3.1,2.479
				c9.289-7.123,74.95-63.182,79.288-67.207C228.39,146.303,228.39,143.205,223.743,146.613z"/>
		</g>
	</g>
	<g>
		<g>
			<path style="fill:#C57100;" d="M246.77,109.73c-9.758-2.322-106.855-16.262-106.855-16.262s-81.301,59.933-87.805,64.576
				c-6.504,4.646-13.008,6.969-6.039,8.365c0,0,5.832,1.262,14.813,3.217c-10.38,9.979-17.982,17.264-19.459,18.615
				c-5.576,5.111-2.322,6.504,3.251,6.971c5.577,0.465,86.412,21.836,98.955,23.229c12.546,1.395,21.37,2.785,26.017-1.859
				c4.646-4.646,71.08-64.576,78.98-71.08c7.897-6.504,8.362-6.039,11.613-16.258C263.494,119.02,256.524,112.055,246.77,109.73z"/>
			<path style="fill:none;stroke:#4B1A00;stroke-width:0.25;stroke-miterlimit:10;" d="M246.77,109.73
				c-9.758-2.322-106.855-16.262-106.855-16.262s-81.301,59.933-87.805,64.576c-6.504,4.646-13.008,6.969-6.039,8.365
				c0,0,5.832,1.262,14.813,3.217c-10.38,9.979-17.982,17.264-19.459,18.615c-5.576,5.111-2.322,6.504,3.251,6.971
				c5.577,0.465,86.412,21.836,98.955,23.229c12.546,1.395,21.37,2.785,26.017-1.859c4.646-4.646,71.08-64.576,78.98-71.08
				c7.897-6.504,8.362-6.039,11.613-16.258C263.494,119.02,256.524,112.055,246.77,109.73z"/>
		</g>
		<g style="opacity:0.5;">
			<path style="fill:#C57100;" d="M255.246,113.5c0.396,3.598-2.045,7.184-4.981,9.932c-5.459,5.119-11.913,9.111-17.645,13.926
				c-10.621,8.918-21.336,17.723-32.055,26.516c-8.148,6.688-15.205,14.699-23.788,20.861c-4.04,2.902-8.492,6.035-13.685,6.01
				c-5.449-0.031-10.869-1.252-16.201-2.273c-12.948-2.477-25.873-5.096-38.888-7.197c-13.769-2.227-26.987-6.002-40.599-8.861
				c-2.471-0.518-4.907-1.256-7.341-1.998c-9.956,9.57-17.203,16.514-18.64,17.828c-5.576,5.111-2.322,6.504,3.251,6.971
				c5.577,0.465,86.412,21.836,98.955,23.229c12.546,1.395,21.37,2.785,26.017-1.859c4.646-4.646,71.08-64.576,78.98-71.08
				c7.897-6.504,8.362-6.039,11.613-16.258C262.42,122.395,260.01,117.012,255.246,113.5z"/>
		</g>
		<g>
			<path style="fill:#C57100;" d="M44.368,187.316c-3.1,3.096-5.885,3.715,1.238,5.572c7.123,1.857,43.671,10.221,64.111,14.248
				c20.443,4.025,51.414,13.008,56.061,8.98c4.645-4.023,7.123-13.008,1.549-21.678c-5.576-8.674-46.148-15.797-67.519-20.443
				c-16.704-3.629-44.187-8.773-55.398-10.85c-1.938,1.5-2.078,2.514,1.66,3.264c0,0,5.832,1.262,14.813,3.217
				c-2.182,2.1-4.237,4.074-6.143,5.906l0.466,0.012C55.207,175.545,47.464,184.219,44.368,187.316z"/>
		</g>
		<path style="fill:#FEFCED;stroke:#A39D8D;stroke-miterlimit:10;" d="M46.768,166.873c0,0,7.666,6.35,6.581,12.234
			c-1.084,5.885-6.504,9.912-6.504,9.912s-2.169,0.93,4.182,2.17c6.347,1.238,104.221,22.607,107.936,22.762
			c3.72,0.154,8.52,0.465,8.828-10.531c0.311-10.992-12.775-12.697-22.998-15.639C134.572,184.838,46.768,166.873,46.768,166.873z"
			/>
		<path style="fill:#EAE3D3;" d="M144.792,187.781c-10.22-2.943-98.024-20.908-98.024-20.908s7.666,6.35,6.581,12.234
			c-1.084,5.885-6.504,9.912-6.504,9.912s-2.169,0.93,4.182,2.17c6.347,1.238,104.221,22.607,107.936,22.762
			c3.72,0.154,8.52,0.465,8.828-10.531C168.101,192.428,155.016,190.723,144.792,187.781z M154.628,208.375
			c-9.93-1.25-30.349-6.035-39.956-8.67c0.354,1.207,10.948,5.299,9.292,4.953c-10.862-2.256-61.088-13.035-70.307-16.104
			c-2.3-0.768,1.59-1.355,3.91-0.586c5.737,1.91,42.503,10.813,48.435,11.424c-5.765-1.66-42.35-11.926-48.317-12.355
			c-2.417-0.174-2.434-3.957,0-3.781c7.545,0.545,14.578,3.24,21.872,5.023c7.298,1.785,14.726,3.047,21.989,4.955
			c15.643,4.109,36.357,10.018,52.462,12.043C156.392,205.58,157.041,208.68,154.628,208.375z M154.936,203.451
			c-7.502-0.467-15.459-2.738-22.854-4.229c-8.228-1.656-16.433-3.436-24.61-5.332c-16.828-3.904-33.563-8.191-50.29-12.496
			c-2.359-0.607-1.356-4.256,1.005-3.646c16.727,4.305,33.455,8.623,50.289,12.496c8.182,1.885,16.379,3.695,24.614,5.332
			c7.057,1.404,14.688,3.65,21.846,4.096C157.355,199.822,157.372,203.604,154.936,203.451z M155.638,197.709
			c-16.182-4.73-33.133-7.568-49.633-11.16c-8.305-1.807-16.594-3.666-24.949-5.232c-7.906-1.482-15.596-3.012-23.061-6.082
			c-2.223-0.914-4.834-4.666-2.48-4.027c10.224,2.789,18.643,4.988,26.546,6.465c8.358,1.559,16.644,3.424,24.948,5.232
			c15.968,3.475,32.351,6.26,48.057,10.721c0.583-0.184,1.246-0.107,1.828,0.406c0.194,0.17,0.389,0.344,0.586,0.518
			C158.919,195.822,157.402,198.225,155.638,197.709z"/>
		<path style="fill:#EAE3D3;" d="M144.792,187.781c-10.22-2.943-98.024-20.908-98.024-20.908s7.666,6.35,6.581,12.234
			c-0.188,1.004-0.505,1.951-0.893,2.838c2.414-2.088,3.676-5.746,1.57-8.391c-0.987-1.238-0.445-3.211,1.335-3.229
			c6.233-0.063,12.346,1.752,18.355,3.219c6.936,1.689,13.744,3.855,20.71,5.441c14.28,3.254,28.759,5.514,43.076,8.598
			c3.367,0.723,21.42,3.045,24.48,8.82c4.195,4.918,4.463,14.887-3.618,15.615c-3.214,0.291-6.403,0.258-9.574,0.008
			c5.737,1.172,9.501,1.896,10.173,1.924c3.72,0.154,8.52,0.465,8.828-10.531C168.101,192.428,155.016,190.723,144.792,187.781z"/>
		<g>
			<path style="fill:#C57100;" d="M49.322,161.609l91.985-66.59l106.855,16.416c0,0-99.112-13.01-104.066-12.701
				C139.142,99.045,49.322,161.609,49.322,161.609z"/>
		</g>
		<g>
			<path style="fill:#C57100;" d="M249.401,116.08c-8.506,6.236-76.5,63.801-82.077,68.447c-5.573,4.646-6.192,9.604,3.1,2.477
				c9.29-7.123,74.95-63.18,79.289-67.207C254.048,115.77,254.048,112.674,249.401,116.08z"/>
		</g>
	</g>
	<g>
		<g>
			<path style="fill:#F4C100;" d="M244.171,71.924c-9.758-2.322-106.855-16.262-106.855-16.262s-81.299,59.934-87.803,64.576
				c-6.504,4.647-13.008,6.971-6.039,8.365c0,0,5.832,1.262,14.813,3.217c-10.38,9.979-17.982,17.264-19.459,18.615
				c-5.576,5.113-2.322,6.504,3.251,6.971c5.577,0.465,86.41,21.836,98.953,23.229c12.547,1.395,21.37,2.785,26.017-1.859
				c4.646-4.646,71.081-64.576,78.98-71.08c7.897-6.504,8.362-6.039,11.613-16.258C260.896,81.213,253.926,74.248,244.171,71.924z"
				/>
			<path style="fill:none;stroke:#8C4F00;stroke-width:0.25;stroke-miterlimit:10;" d="M244.171,71.924
				c-9.758-2.322-106.855-16.262-106.855-16.262s-81.299,59.934-87.803,64.576c-6.504,4.647-13.008,6.971-6.039,8.365
				c0,0,5.832,1.262,14.813,3.217c-10.38,9.979-17.982,17.264-19.459,18.615c-5.576,5.113-2.322,6.504,3.251,6.971
				c5.577,0.465,86.41,21.836,98.953,23.229c12.547,1.395,21.37,2.785,26.017-1.859c4.646-4.646,71.081-64.576,78.98-71.08
				c7.897-6.504,8.362-6.039,11.613-16.258C260.896,81.213,253.926,74.248,244.171,71.924z"/>
		</g>
		<g style="opacity:0.5;">
			<path style="fill:#F4C100;" d="M252.646,75.693c0.396,3.6-2.045,7.184-4.98,9.932c-5.46,5.119-11.914,9.113-17.645,13.926
				c-10.622,8.918-21.337,17.723-32.056,26.516c-8.148,6.688-15.205,14.699-23.787,20.861c-4.041,2.902-8.493,6.035-13.684,6.01
				c-5.45-0.031-10.87-1.252-16.202-2.273c-12.948-2.477-25.871-5.096-38.886-7.197c-13.769-2.227-26.987-6.002-40.599-8.861
				c-2.471-0.518-4.907-1.254-7.341-1.998c-9.956,9.57-17.203,16.514-18.64,17.828c-5.576,5.113-2.322,6.504,3.251,6.971
				c5.577,0.465,86.41,21.836,98.953,23.229c12.547,1.395,21.37,2.785,26.017-1.859c4.646-4.646,71.081-64.576,78.98-71.08
				c7.897-6.504,8.362-6.039,11.613-16.258C259.82,84.588,257.41,79.205,252.646,75.693z"/>
		</g>
		<g>
			<path style="fill:#F4C100;" d="M41.771,149.51c-3.1,3.096-5.885,3.715,1.238,5.572c7.123,1.857,43.671,10.221,64.111,14.248
				c20.441,4.027,51.412,13.008,56.059,8.98c4.646-4.023,7.123-13.008,1.55-21.678c-5.577-8.674-46.147-15.797-67.518-20.443
				c-16.704-3.629-44.187-8.773-55.397-10.85c-1.938,1.5-2.078,2.514,1.66,3.264c0,0,5.832,1.262,14.813,3.217
				c-2.182,2.1-4.237,4.074-6.142,5.906l0.466,0.012C52.609,137.738,44.866,146.412,41.771,149.51z"/>
		</g>
		<path style="fill:#FEFCED;stroke:#A39D8D;stroke-miterlimit:10;" d="M44.171,129.066c0,0,7.665,6.35,6.58,12.234
			c-1.084,5.885-6.504,9.912-6.504,9.912s-2.169,0.93,4.182,2.17c6.347,1.238,104.219,22.607,107.935,22.762
			c3.719,0.154,8.519,0.465,8.827-10.531c0.312-10.992-12.774-12.697-22.997-15.639C131.974,147.031,44.171,129.066,44.171,129.066z
			"/>
		<path style="fill:#EAE3D3;" d="M142.193,149.975c-10.22-2.943-98.023-20.908-98.023-20.908s7.665,6.35,6.58,12.234
			c-1.084,5.885-6.504,9.912-6.504,9.912s-2.169,0.93,4.182,2.17c6.347,1.238,104.219,22.607,107.935,22.762
			c3.719,0.154,8.519,0.465,8.827-10.531C165.502,154.621,152.416,152.916,142.193,149.975z M152.028,170.568
			c-9.929-1.248-30.347-6.035-39.954-8.67c0.354,1.209,10.946,5.299,9.292,4.953c-10.862-2.256-61.088-13.035-70.307-16.104
			c-2.3-0.768,1.59-1.355,3.91-0.586c5.737,1.91,42.503,10.813,48.435,11.424c-5.765-1.66-42.35-11.926-48.317-12.355
			c-2.417-0.174-2.434-3.955,0-3.781c7.545,0.545,14.578,3.24,21.872,5.023c7.298,1.785,14.726,3.047,21.989,4.955
			c15.642,4.109,36.355,10.02,52.461,12.043C153.792,167.773,154.441,170.873,152.028,170.568z M152.336,165.645
			c-7.502-0.467-15.459-2.738-22.854-4.229c-8.226-1.656-16.431-3.434-24.608-5.332c-16.828-3.904-33.563-8.191-50.29-12.496
			c-2.359-0.607-1.355-4.256,1.005-3.646c16.726,4.305,33.455,8.623,50.289,12.496c8.182,1.885,16.379,3.695,24.612,5.334
			c7.057,1.402,14.688,3.648,21.846,4.094C154.757,162.016,154.773,165.799,152.336,165.645z M153.039,159.902
			c-16.182-4.729-33.132-7.568-49.632-11.16c-8.305-1.807-16.594-3.666-24.949-5.232c-7.906-1.482-15.596-3.012-23.061-6.082
			c-2.223-0.914-4.834-4.666-2.48-4.027c10.224,2.789,18.643,4.988,26.546,6.465c8.358,1.561,16.644,3.424,24.948,5.232
			c15.968,3.475,32.35,6.26,48.056,10.721c0.582-0.184,1.245-0.107,1.827,0.406c0.194,0.17,0.389,0.344,0.586,0.518
			C156.319,158.016,154.803,160.418,153.039,159.902z"/>
		<path style="fill:#EAE3D3;" d="M142.193,149.975c-10.22-2.943-98.023-20.908-98.023-20.908s7.665,6.35,6.58,12.234
			c-0.188,1.004-0.505,1.951-0.894,2.838c2.414-2.088,3.676-5.746,1.57-8.391c-0.987-1.238-0.445-3.211,1.335-3.229
			c6.233-0.063,12.346,1.752,18.356,3.219c6.936,1.689,13.744,3.855,20.71,5.441c14.28,3.254,28.759,5.514,43.074,8.598
			c3.367,0.723,21.421,3.045,24.48,8.82c4.194,4.918,4.462,14.887-3.619,15.615c-3.214,0.291-6.403,0.258-9.573,0.008
			c5.737,1.172,9.5,1.898,10.173,1.924c3.719,0.154,8.519,0.465,8.827-10.531C165.502,154.621,152.416,152.916,142.193,149.975z"/>
		<g>
			<path style="fill:#F4C100;" d="M46.725,123.803l91.983-66.59l106.856,16.416c0,0-99.112-13.01-104.066-12.701
				C136.542,61.238,46.725,123.803,46.725,123.803z"/>
		</g>
		<g>
			<path style="fill:#F4C100;" d="M246.802,78.275c-8.506,6.236-76.5,63.799-82.076,68.445c-5.574,4.646-6.193,9.604,3.1,2.477
				c9.289-7.123,74.95-63.18,79.288-67.207C251.448,77.963,251.448,74.867,246.802,78.275z"/>
		</g>
	</g>
	<g>
		<g>
			<path style="fill:#A31824;" d="M227.23,30.467c-9.758-2.322-106.854-16.262-106.854-16.262S39.075,74.139,32.571,78.781
				c-6.504,4.646-13.008,6.971-6.039,8.365c0,0,5.832,1.262,14.813,3.217c-10.381,9.981-17.982,17.264-19.459,18.615
				c-5.576,5.113-2.322,6.506,3.251,6.971c5.577,0.465,86.412,21.836,98.955,23.229c12.544,1.395,21.368,2.787,26.015-1.859
				c4.646-4.646,71.081-64.576,78.98-71.08c7.896-6.504,8.362-6.039,11.613-16.258C243.953,39.756,236.983,32.791,227.23,30.467z"/>
			<path style="fill:none;stroke:#3E0014;stroke-width:0.25;stroke-miterlimit:10;" d="M228.207,29.371
				c-9.758-2.322-106.854-16.262-106.854-16.262S40.053,73.043,33.549,77.686c-6.505,4.646-13.009,6.969-6.039,8.365
				c0,0,5.831,1.262,14.813,3.217c-10.38,9.979-17.982,17.264-19.459,18.613c-5.577,5.111-2.323,6.504,3.251,6.971
				c5.576,0.465,86.412,21.834,98.953,23.226c12.547,1.396,21.37,2.789,26.017-1.857s71.081-64.574,78.98-71.078
				c7.897-6.504,8.362-6.039,11.612-16.26C244.931,38.66,237.962,31.693,228.207,29.371z"/>
		</g>
		<g style="opacity:0.5;">
			<path style="fill:#A31824;" d="M236.683,33.141c0.395,3.598-2.045,7.184-4.98,9.932c-5.46,5.119-11.914,9.111-17.645,13.926
				c-10.621,8.918-21.337,17.721-32.056,26.516c-8.148,6.688-15.204,14.699-23.787,20.861c-4.04,2.9-8.492,6.033-13.685,6.008
				c-5.449-0.031-10.869-1.252-16.201-2.273c-12.946-2.477-25.871-5.094-38.887-7.195c-13.768-2.227-26.987-6.002-40.598-8.861
				c-2.471-0.519-4.907-1.256-7.341-1.998c-9.956,9.57-17.203,16.514-18.64,17.826c-5.577,5.111-2.323,6.504,3.251,6.971
				c5.576,0.465,86.412,21.834,98.953,23.226c12.547,1.396,21.37,2.789,26.017-1.857s71.081-64.574,78.98-71.078
				c7.897-6.504,8.362-6.039,11.612-16.26C243.857,42.035,241.446,36.652,236.683,33.141z"/>
		</g>
		<g>
			<path style="fill:#A31824;" d="M25.806,106.955c-3.1,3.096-5.885,3.715,1.238,5.572c7.124,1.858,43.672,10.221,64.111,14.248
				c20.443,4.025,51.413,13.008,56.059,8.981c4.646-4.023,7.124-13.008,1.551-21.678c-5.577-8.672-46.147-15.795-67.518-20.441
				c-16.704-3.629-44.187-8.773-55.397-10.85c-1.938,1.5-2.079,2.514,1.66,3.264c0,0,5.831,1.262,14.813,3.217
				c-2.183,2.1-4.237,4.074-6.143,5.904l0.466,0.014C36.646,95.186,28.902,103.859,25.806,106.955z"/>
		</g>
		<path style="fill:#FEFCED;stroke:#A39D8D;stroke-miterlimit:10;" d="M28.206,86.512c0,0,7.666,6.352,6.581,12.236
			c-1.085,5.885-6.504,9.91-6.504,9.91s-2.169,0.93,4.181,2.168c6.348,1.24,104.219,22.609,107.936,22.764
			c3.719,0.154,8.519,0.465,8.826-10.531c0.313-10.992-12.773-12.697-22.996-15.639C116.011,104.479,28.206,86.512,28.206,86.512z"
			/>
		<path style="fill:#EAE3D3;" d="M126.229,107.42c-10.219-2.941-98.023-20.908-98.023-20.908s7.666,6.352,6.581,12.236
			c-1.085,5.885-6.504,9.91-6.504,9.91s-2.169,0.93,4.181,2.168c6.348,1.24,104.219,22.609,107.936,22.764
			c3.719,0.154,8.519,0.465,8.826-10.531C149.538,112.066,136.452,110.361,126.229,107.42z M136.064,128.014
			c-9.928-1.25-30.346-6.035-39.953-8.67c0.354,1.207,10.945,5.299,9.292,4.953c-10.862-2.256-61.088-13.035-70.308-16.104
			c-2.299-0.768,1.591-1.355,3.91-0.586c5.738,1.91,42.503,10.813,48.435,11.424c-5.765-1.66-42.35-11.926-48.318-12.354
			c-2.417-0.174-2.434-3.957,0-3.783c7.545,0.547,14.578,3.24,21.873,5.023c7.297,1.785,14.726,3.047,21.989,4.955
			c15.643,4.109,36.357,10.018,52.46,12.043C137.828,125.219,138.478,128.318,136.064,128.014z M136.372,123.09
			c-7.502-0.467-15.457-2.738-22.852-4.229c-8.229-1.658-16.434-3.436-24.611-5.332c-16.828-3.904-33.562-8.189-50.289-12.496
			c-2.359-0.606-1.355-4.254,1.004-3.645c16.728,4.305,33.455,8.623,50.29,12.494c8.181,1.885,16.379,3.695,24.614,5.332
			c7.056,1.404,14.687,3.65,21.844,4.096C138.792,119.461,138.809,123.242,136.372,123.09z M137.075,117.348
			c-16.181-4.73-33.132-7.568-49.632-11.158c-8.306-1.809-16.594-3.666-24.949-5.232c-7.906-1.482-15.596-3.014-23.061-6.082
			c-2.223-0.914-4.834-4.666-2.481-4.027c10.224,2.789,18.642,4.988,26.546,6.465c8.358,1.559,16.644,3.424,24.948,5.23
			c15.968,3.475,32.351,6.26,48.056,10.721c0.582-0.184,1.244-0.107,1.827,0.406c0.194,0.17,0.389,0.344,0.586,0.518
			C140.355,115.461,138.839,117.863,137.075,117.348z"/>
		<path style="fill:#EAE3D3;" d="M126.229,107.42c-10.219-2.941-98.023-20.908-98.023-20.908s7.666,6.352,6.581,12.236
			c-0.188,1.004-0.505,1.951-0.894,2.838c2.414-2.088,3.676-5.748,1.57-8.393c-0.988-1.238-0.445-3.209,1.335-3.227
			c6.233-0.063,12.346,1.752,18.354,3.217c6.936,1.691,13.745,3.857,20.711,5.443c14.28,3.254,28.758,5.514,43.075,8.596
			c3.368,0.723,21.419,3.045,24.479,8.82c4.194,4.916,4.463,14.887-3.618,15.615c-3.214,0.291-6.404,0.258-9.574,0.008
			c5.738,1.17,9.5,1.896,10.174,1.924c3.719,0.154,8.519,0.465,8.826-10.531C149.538,112.066,136.452,110.361,126.229,107.42z"/>
		<g>
			<path style="fill:#A31824;" d="M30.761,81.25l91.985-66.592L229.6,31.074c0,0-99.112-13.008-104.067-12.699
				C120.58,18.685,30.761,81.25,30.761,81.25z"/>
		</g>
		<g>
			<path style="fill:#A31824;" d="M230.838,35.721c-8.506,6.236-76.5,63.801-82.077,68.447c-5.573,4.645-6.192,9.602,3.1,2.477
				c9.289-7.123,74.951-63.18,79.289-67.207C235.484,35.41,235.484,32.314,230.838,35.721z"/>
		</g>
	</g>
</g>
</svg>
